<svg width="17" height="17" viewBox="0 0 17 17" fill="none" xmlns="http://www.w3.org/2000/svg">
<g clip-path="url(#clip0_2579_201)">
<path d="M16.1928 2.56457C16.1928 1.93828 15.944 1.33763 15.5011 0.894776C15.0583 0.451919 14.4576 0.203125 13.8313 0.203125H2.36145C1.73624 0.206667 1.13766 0.456599 0.695566 0.898691C0.253474 1.34078 0.0035423 1.93937 0 2.56457L0 11.3357C0.0223625 11.9841 0.250979 12.6086 0.652613 13.1182C1.05425 13.6278 1.60796 13.9961 2.23325 14.1694C10.4173 16.0788 9.91807 15.9911 10.2824 15.9911C10.7131 16.0047 11.1344 15.8634 11.4699 15.593C11.6946 15.4026 11.8723 15.1629 11.9893 14.8926C12.1063 14.6223 12.1595 14.3286 12.1446 14.0345V7.49662C12.1447 6.86892 11.9397 6.25837 11.561 5.75782C11.1822 5.25728 10.6504 4.89413 10.0463 4.72361L2.73928 2.69951C2.60954 2.66462 2.49899 2.57962 2.43193 2.46321C2.36486 2.3468 2.34679 2.20852 2.38169 2.07879C2.41658 1.94906 2.50158 1.8385 2.61799 1.77144C2.7344 1.70438 2.87268 1.6863 3.00241 1.7212C5.51904 2.3959 5.37735 2.3959 5.41108 2.3959H13.8313C13.9655 2.3959 14.0942 2.44921 14.1891 2.54411C14.284 2.63901 14.3374 2.76771 14.3374 2.90192C14.3374 3.03613 14.284 3.16484 14.1891 3.25973C14.0942 3.35463 13.9655 3.40794 13.8313 3.40794H10.2959C10.2556 3.40927 10.2172 3.42496 10.1875 3.45219C10.1578 3.47942 10.1388 3.51637 10.134 3.55638C10.1275 3.59729 10.1363 3.63915 10.1587 3.67399C10.1811 3.70883 10.2155 3.73421 10.2554 3.74529C11.0499 3.94886 11.7589 4.40025 12.2795 5.03397C12.2959 5.05368 12.3166 5.0694 12.34 5.07992C12.3634 5.09044 12.3888 5.09549 12.4145 5.09469H13.8313C13.9655 5.09469 14.0942 5.148 14.1891 5.2429C14.284 5.3378 14.3374 5.46651 14.3374 5.60072C14.3374 5.73492 14.284 5.86363 14.1891 5.95853C14.0942 6.05343 13.9655 6.10674 13.8313 6.10674H13.1566C13.1297 6.10694 13.1033 6.11382 13.0798 6.12678C13.0562 6.13974 13.0362 6.15836 13.0217 6.18096C13.0104 6.20406 13.0045 6.22945 13.0045 6.25517C13.0045 6.2809 13.0104 6.30629 13.0217 6.32939C13.1455 6.70614 13.2093 7.10004 13.2106 7.49662V12.179C13.2106 12.2238 13.2284 12.2667 13.26 12.2983C13.2916 12.3299 13.3345 12.3477 13.3793 12.3477H13.8853C14.5022 12.3336 15.0891 12.0786 15.5203 11.6373C15.9516 11.1959 16.1929 10.6033 16.1928 9.98626V2.56457ZM10.4578 10.3236C10.4578 10.5905 10.3787 10.8514 10.2304 11.0733C10.0821 11.2952 9.8714 11.4682 9.62483 11.5703C9.37826 11.6724 9.10694 11.6991 8.84518 11.6471C8.58342 11.595 8.34298 11.4665 8.15427 11.2778C7.96555 11.0891 7.83703 10.8486 7.78496 10.5869C7.7329 10.3251 7.75962 10.0538 7.86175 9.80721C7.96389 9.56064 8.13684 9.3499 8.35875 9.20162C8.58066 9.05335 8.84155 8.97421 9.10843 8.97421C9.46632 8.97421 9.80954 9.11638 10.0626 9.36944C10.3157 9.6225 10.4578 9.96572 10.4578 10.3236Z" fill="black"/>
</g>
<defs>
<clipPath id="clip0_2579_201">
<rect width="16.1928" height="16.1928" fill="white"/>
</clipPath>
</defs>
</svg>
