<svg width="17" height="17" viewBox="0 0 17 17" fill="none" xmlns="http://www.w3.org/2000/svg">
<g clip-path="url(#clip0_2579_203)">
<path d="M5.33135 5.73047C5.01762 5.73047 4.71674 5.8551 4.4949 6.07694C4.27307 6.29878 4.14844 6.59965 4.14844 6.91338C4.14844 7.22711 4.27307 7.52799 4.4949 7.74983C4.71674 7.97167 5.01762 8.0963 5.33135 8.0963C5.64508 8.0963 5.94596 7.97167 6.1678 7.74983C6.38964 7.52799 6.51426 7.22711 6.51426 6.91338C6.51426 6.59965 6.38964 6.29878 6.1678 6.07694C5.94596 5.8551 5.64508 5.73047 5.33135 5.73047ZM10.8516 5.73047C10.1971 5.73047 9.6687 6.25884 9.6687 6.91338C9.6687 7.56793 10.1971 8.0963 10.8516 8.0963C11.5062 8.0963 12.0345 7.56793 12.0345 6.91338C12.0345 6.25884 11.5062 5.73047 10.8516 5.73047Z" fill="black"/>
<path d="M8.09703 0.210938C3.75179 0.210938 0.210938 3.75179 0.210938 8.09703C0.210938 12.4423 3.75179 15.9831 8.09703 15.9831C12.4423 15.9831 15.9831 12.4423 15.9831 8.09703C15.9831 3.75179 12.4423 0.210938 8.09703 0.210938ZM8.09703 14.4059C4.61926 14.4059 1.78816 11.5748 1.78816 8.09703C1.78816 4.61926 4.61926 1.78816 8.09703 1.78816C11.5748 1.78816 14.4059 4.61926 14.4059 8.09703C14.4059 11.5748 11.5748 14.4059 8.09703 14.4059Z" fill="black"/>
<path d="M10.3309 10.3286C9.89699 10.7669 9.34246 11.0661 8.73792 11.1882C8.11082 11.3164 7.45967 11.2532 6.86892 11.0068C6.49347 10.8493 6.15305 10.6188 5.86738 10.3286C5.72543 10.1867 5.59926 10.029 5.48097 9.86336L4.17188 10.7466C4.34537 10.999 4.53464 11.2355 4.74756 11.4406C4.96048 11.6535 5.19707 11.8506 5.44942 12.0163C5.70178 12.1819 5.9699 12.3317 6.2538 12.45C6.5377 12.5683 6.83737 12.6629 7.14493 12.726C7.77469 12.8535 8.4236 12.8535 9.05336 12.726C9.35304 12.6629 9.65271 12.5683 9.94449 12.45C10.2284 12.3317 10.4965 12.1819 10.7489 12.0163C11.0012 11.8506 11.2378 11.6535 11.4507 11.4406C11.6637 11.2276 11.8608 10.9911 12.0264 10.7387L10.7173 9.85547C10.6069 10.0211 10.4729 10.1788 10.3309 10.3207V10.3286Z" fill="black"/>
</g>
<defs>
<clipPath id="clip0_2579_203">
<rect width="16.1928" height="16.1928" fill="white"/>
</clipPath>
</defs>
</svg>
