<svg width="25" height="25" viewBox="0 0 25 25" fill="none" xmlns="http://www.w3.org/2000/svg">
<path d="M14.2902 17.9721C14.2902 18.4382 14.102 18.8851 13.7672 19.2147C13.4323 19.5442 12.9781 19.7294 12.5045 19.7294C12.0309 19.7294 11.5767 19.5442 11.2418 19.2147C10.9069 18.8851 10.7188 18.4382 10.7188 17.9721C10.7188 17.5061 10.9069 17.0591 11.2418 16.7295C11.5767 16.4 12.0309 16.2148 12.5045 16.2148C12.9781 16.2148 13.4323 16.4 13.7672 16.7295C14.102 17.0591 14.2902 17.5061 14.2902 17.9721Z" fill="black"/>
<path d="M15.294 0L19.0798 5.22024L21.5762 4.38261L23.8548 10.9419H25V25H0V10.9419H0.607143V10.9302L1.37857 10.9372L15.294 0ZM9.40119 10.9419H21.3393L20.1048 7.38871L18.2929 7.95923L9.40119 10.9419ZM7.54643 9.08739L16.7262 6.00984L14.8167 3.37395L7.54643 9.08739ZM4.7619 13.2849H2.38095V15.6279C3.01242 15.6279 3.61802 15.3811 4.06454 14.9417C4.51106 14.5023 4.7619 13.9063 4.7619 13.2849ZM16.6667 17.9709C16.6667 17.4325 16.5589 16.8993 16.3495 16.4018C16.1401 15.9044 15.8332 15.4524 15.4463 15.0716C15.0594 14.6909 14.6 14.3888 14.0945 14.1828C13.589 13.9767 13.0472 13.8707 12.5 13.8707C11.9528 13.8707 11.411 13.9767 10.9055 14.1828C10.4 14.3888 9.94063 14.6909 9.55372 15.0716C9.16681 15.4524 8.8599 15.9044 8.6505 16.4018C8.44111 16.8993 8.33333 17.4325 8.33333 17.9709C8.33333 19.0584 8.77232 20.1013 9.55372 20.8703C10.3351 21.6392 11.3949 22.0712 12.5 22.0712C13.6051 22.0712 14.6649 21.6392 15.4463 20.8703C16.2277 20.1013 16.6667 19.0584 16.6667 17.9709ZM22.619 22.657V20.314C21.9876 20.314 21.382 20.5608 20.9355 21.0002C20.4889 21.4396 20.2381 22.0356 20.2381 22.657H22.619ZM20.2381 13.2849C20.2381 13.9063 20.4889 14.5023 20.9355 14.9417C21.382 15.3811 21.9876 15.6279 22.619 15.6279V13.2849H20.2381ZM2.38095 22.657H4.7619C4.7619 22.0356 4.51106 21.4396 4.06454 21.0002C3.61802 20.5608 3.01242 20.314 2.38095 20.314V22.657Z" fill="black"/>
</svg>
