<svg width="25" height="25" viewBox="0 0 25 25" fill="none" xmlns="http://www.w3.org/2000/svg">
<path d="M5.46738 10.941C8.48225 10.941 10.9348 8.4885 10.9348 5.47363C10.9348 2.45876 8.48225 0.00624836 5.46738 0.00624836C2.45251 0.00624836 0 2.45876 0 5.47363C0 8.4885 2.45251 10.941 5.46738 10.941ZM5.46738 3.13047C6.76393 3.13047 7.81055 4.17708 7.81055 5.47363C7.81055 6.77018 6.76393 7.8168 5.46738 7.8168C4.17083 7.8168 3.12422 6.77018 3.12422 5.47363C3.12422 4.17708 4.17083 3.13047 5.46738 3.13047ZM0.00312399 22.7865L22.7912 0L25 2.20882L2.21351 24.9953L0.00312399 22.7865ZM19.5264 14.0652C16.5115 14.0652 14.059 16.5177 14.059 19.5326C14.059 22.5475 16.5115 25 19.5264 25C22.5412 25 24.9938 22.5475 24.9938 19.5326C24.9938 16.5177 22.5412 14.0652 19.5264 14.0652ZM19.5264 21.8758C18.2298 21.8758 17.1832 20.8292 17.1832 19.5326C17.1832 18.2361 18.2298 17.1895 19.5264 17.1895C20.8229 17.1895 21.8695 18.2361 21.8695 19.5326C21.8695 20.8292 20.8229 21.8758 19.5264 21.8758Z" fill="black"/>
</svg>
