<svg width="20" height="20" viewBox="0 0 20 20" fill="none" xmlns="http://www.w3.org/2000/svg">
<path d="M18.2129 0.90918H16.1024V3.63644H15.4531V4.2425H16.1024V4.84855H15.4531V5.45461H16.1024V6.36373H16.7518V5.45461H18.0505V4.84855H16.7518V4.2425H18.2129C19.1999 4.2425 19.9986 3.49705 19.9986 2.57584C19.9986 1.65463 19.1999 0.90918 18.2129 0.90918ZM18.2129 3.63644H16.7518V1.51524H18.2129C18.8395 1.51524 19.3492 1.99099 19.3492 2.57584C19.3492 3.16068 18.8395 3.63644 18.2129 3.63644Z" fill="black"/>
<path d="M3.53906 14.0001V5.00009H7.20573V14.0001H3.53906ZM10.8724 15.0092V10.2092H12.7057H14.5391V15.0092H10.8724Z" fill="black"/>
<path d="M5.3724 4.90031V0.90918M12.7057 9.98237V4.90031M12.7057 9.98237H10.8724V14.958H14.5391V9.98237H12.7057ZM12.7057 20V14.958M5.3724 19V13.6808M3.53906 13.6808V4.90031H7.20573V13.6808H3.53906Z" stroke="black" stroke-width="2"/>
</svg>
