<svg width="27" height="26" viewBox="0 0 27 26" fill="none" xmlns="http://www.w3.org/2000/svg">
<path d="M3.38281 22.7723H6.35669C7.68572 22.7723 9.03185 22.9051 10.3254 23.1583C12.6349 23.6088 15.0108 23.6589 17.339 23.3062C18.4811 23.1307 19.6023 22.8613 20.6181 22.395C21.534 21.9726 22.6564 21.3798 23.4104 20.7143C24.1631 20.05 24.9473 18.9633 25.5026 18.1136C25.9816 17.3841 25.75 16.4905 24.9947 15.9478C24.57 15.6543 24.0588 15.4962 23.5341 15.4962C23.0094 15.4962 22.4981 15.6543 22.0735 15.9478L19.6957 17.6586C18.7746 18.3229 17.7679 18.9333 16.5692 19.115C16.4244 19.1367 16.2731 19.1564 16.1152 19.1739M16.1152 19.1739L15.9705 19.1889M16.1152 19.1739C16.3258 19.1196 16.5189 19.0162 16.6771 18.8731C16.8757 18.7099 17.0379 18.5104 17.1541 18.2864C17.2703 18.0625 17.3381 17.8186 17.3536 17.5692C17.3691 17.3198 17.3318 17.07 17.2441 16.8345C17.1564 16.5991 17.0199 16.3828 16.8429 16.1985C16.6714 16.0171 16.4717 15.862 16.2507 15.7385C12.5702 13.6466 6.84224 15.2397 3.38281 17.5771M16.1152 19.1739C16.0677 19.184 16.0191 19.1891 15.9705 19.1889M15.9705 19.1889C15.1769 19.2647 14.3774 19.2664 13.5835 19.194" stroke="black" stroke-width="1.5"/>
<path d="M3.38172 16.6846C3.38172 15.6248 2.79259 14.7656 2.06586 14.7656C1.33913 14.7656 0.75 15.6248 0.75 16.6846V23.0811C0.75 24.141 1.33913 25.0001 2.06586 25.0001C2.79259 25.0001 3.38172 24.141 3.38172 23.0811V16.6846Z" stroke="black" stroke-width="1.5"/>
<path d="M11.0951 8.72881H15.4035V7.79943H13.9674V3.46234H12.6883L11.0278 4.78864L11.8917 5.56312C12.2059 5.32432 12.4116 5.14038 12.5088 5.0113H12.5312V7.79943H11.0951V8.72881ZM16.8397 6.25047C16.8397 6.70225 16.7612 7.16049 16.6041 7.62517C16.447 8.08986 16.2245 8.52228 15.9365 8.92243C15.6485 9.32258 15.2689 9.6485 14.7977 9.90021C14.3264 10.1519 13.8103 10.2778 13.2493 10.2778C12.6883 10.2778 12.1722 10.1519 11.701 9.90021C11.2297 9.6485 10.8501 9.32258 10.5621 8.92243C10.2741 8.52228 10.0516 8.08986 9.89454 7.62517C9.73746 7.16049 9.65892 6.70225 9.65892 6.25047C9.65892 5.79869 9.73746 5.34046 9.89454 4.87577C10.0516 4.41108 10.2741 3.97866 10.5621 3.57851C10.8501 3.17837 11.2297 2.85244 11.701 2.60073C12.1722 2.34903 12.6883 2.22317 13.2493 2.22317C13.8103 2.22317 14.3264 2.34903 14.7977 2.60073C15.2689 2.85244 15.6485 3.17837 15.9365 3.57851C16.2245 3.97866 16.447 4.41108 16.6041 4.87577C16.7612 5.34046 16.8397 5.79869 16.8397 6.25047ZM22.5843 8.72881V3.77213C21.7915 3.77213 21.1145 3.53011 20.5535 3.04606C19.9925 2.56201 19.712 1.97792 19.712 1.2938H6.7866C6.7866 1.97792 6.50611 2.56201 5.94511 3.04606C5.38411 3.53011 4.70717 3.77213 3.91429 3.77213V8.72881C4.70717 8.72881 5.38411 8.97083 5.94511 9.45488C6.50611 9.93893 6.7866 10.523 6.7866 11.2071H19.712C19.712 10.523 19.9925 9.93893 20.5535 9.45488C21.1145 8.97083 21.7915 8.72881 22.5843 8.72881ZM24.0205 0.674212V11.8267C24.0205 11.9945 24.1603 12.3235 24.0181 12.4461C23.876 12.5688 23.4969 12.4463 23.3024 12.4463H3.19621C3.00173 12.4463 2.62265 12.5688 2.48053 12.4461C2.33841 12.3235 2.47813 11.9945 2.47813 11.8267V0.674212C2.47813 0.506408 2.33479 0.177082 2.47691 0.054456C2.61903 -0.0681701 3.00173 0.0546282 3.19621 0.0546282H23.3024C23.4969 0.0546282 23.876 -0.0681703 24.0181 0.0544558C24.1603 0.177082 24.0205 0.506408 24.0205 0.674212Z" fill="black"/>
</svg>
