<svg width="17" height="17" viewBox="0 0 17 17" fill="none" xmlns="http://www.w3.org/2000/svg">
<path fill-rule="evenodd" clip-rule="evenodd" d="M2.17047 8.74712L7.61792 14.1957C7.82656 14.4043 8.10915 14.522 8.40417 14.5233C8.6992 14.5245 8.98278 14.4092 9.19319 14.2024L14.1719 9.31323C14.3834 9.10521 14.5036 8.82169 14.5062 8.52502C14.5087 8.22835 14.3933 7.94283 14.1853 7.73124L8.73896 2.18199C8.58287 2.02275 8.39662 1.89621 8.19107 1.80977C7.98553 1.72332 7.76482 1.67871 7.54184 1.67853H2.797C2.50028 1.67853 2.21571 1.7964 2.00589 2.00622C1.79608 2.21603 1.6782 2.50061 1.6782 2.79733L1.6782 7.56007C1.67825 7.78057 1.72175 7.9989 1.80622 8.20258C1.89068 8.40626 2.01446 8.5913 2.17047 8.74712ZM9.93719 1.00501C9.6247 0.6868 9.25193 0.43406 8.84065 0.261556C8.42937 0.0890532 7.98783 0.000246996 7.54184 0.00032633H2.797C2.05519 0.00032633 1.34376 0.29501 0.819223 0.81955C0.294683 1.34409 2.40798e-08 2.05552 2.40798e-08 2.79733L2.40798e-08 7.56007C-5.27895e-05 8.00099 0.086771 8.4376 0.255511 8.84496C0.424251 9.25231 0.6716 9.62243 0.983426 9.93416L6.43199 15.3827C6.95354 15.9039 7.65978 16.198 8.39707 16.2011C9.13436 16.2043 9.84307 15.9162 10.3691 15.3995L15.3477 10.5103C15.8769 9.99059 16.1779 9.28195 16.1846 8.54028C16.1913 7.7986 15.9032 7.08463 15.3835 6.55538L9.93719 1.00501ZM3.39892 5.37729C3.24178 5.53462 3.15352 5.74789 3.15352 5.97025C3.15352 6.19261 3.24178 6.40588 3.39892 6.56322L5.37584 8.54126L5.27739 8.63971C5.12917 8.79878 5.04848 9.00916 5.05231 9.22655C5.05615 9.44393 5.14421 9.65134 5.29795 9.80508C5.45169 9.95882 5.6591 10.0469 5.87648 10.0507C6.09386 10.0546 6.30425 9.97386 6.46332 9.82564L6.56401 9.72831L6.95894 10.1232L6.85937 10.2217C6.70196 10.3791 6.61353 10.5926 6.61353 10.8152C6.61353 11.0378 6.70196 11.2513 6.85937 11.4087C7.01678 11.5662 7.23028 11.6546 7.4529 11.6546C7.56312 11.6546 7.67227 11.6329 7.77411 11.5907C7.87595 11.5485 7.96848 11.4867 8.04642 11.4087L8.14487 11.3103L8.54093 11.7052C8.7 11.8534 8.91038 11.9341 9.12777 11.9303C9.34515 11.9265 9.55256 11.8384 9.7063 11.6847C9.86004 11.5309 9.9481 11.3235 9.95193 11.1061C9.95577 10.8888 9.87508 10.6784 9.72686 10.5193L9.33192 10.1232L10.5179 8.93731C10.598 8.85995 10.662 8.76739 10.706 8.66503C10.75 8.56268 10.7732 8.45258 10.7743 8.34117C10.7753 8.22976 10.7541 8.11925 10.712 8.01611C10.6698 7.91297 10.6076 7.81925 10.5288 7.74043C10.4501 7.66161 10.3564 7.59926 10.2533 7.55702C10.1502 7.51478 10.0397 7.4935 9.92831 7.49441C9.81689 7.49533 9.70677 7.51842 9.60438 7.56235C9.50199 7.60628 9.40937 7.67016 9.33192 7.75026L8.14599 8.93619L7.74994 8.54126L8.63939 7.65069C9.12024 7.14896 9.3854 6.47882 9.37803 5.78391C9.37065 5.08899 9.09132 4.42463 8.59991 3.93323C8.10851 3.44182 7.44415 3.16249 6.74923 3.15511C6.05432 3.14774 5.38418 3.4129 4.88245 3.89375L3.39892 5.37729ZM7.45346 6.46476L6.56289 7.35421L5.18005 5.97025L6.0695 5.07968C6.25317 4.89601 6.50228 4.79283 6.76204 4.79283C7.02179 4.79283 7.2709 4.89601 7.45457 5.07968C7.63825 5.26336 7.74143 5.51247 7.74143 5.77222C7.74143 6.03198 7.63713 6.28109 7.45346 6.46476Z" fill="black"/>
</svg>
