<svg width="20" height="20" viewBox="0 0 20 20" fill="none" xmlns="http://www.w3.org/2000/svg">
<path fill-rule="evenodd" clip-rule="evenodd" d="M2.68213 10.7979L9.41373 17.5242C9.67155 17.7817 10.0208 17.9271 10.3853 17.9286C10.7499 17.9302 11.1003 17.7878 11.3603 17.5325L17.5127 11.4968C17.7741 11.24 17.9226 10.89 17.9258 10.5238C17.9289 10.1575 17.7862 9.80504 17.5292 9.54384L10.799 2.69327C10.6062 2.49669 10.376 2.34048 10.122 2.23376C9.868 2.12705 9.59526 2.07197 9.31971 2.07175H3.45635C3.08968 2.07175 2.73803 2.21726 2.47875 2.47628C2.21947 2.7353 2.07381 3.0866 2.07381 3.45291L2.07381 9.33253C2.07387 9.60473 2.12763 9.87426 2.232 10.1257C2.33638 10.3772 2.48934 10.6056 2.68213 10.7979ZM12.2797 1.24028C11.8936 0.847453 11.4329 0.535444 10.9247 0.322489C10.4165 0.109533 9.87084 -9.8378e-05 9.31971 -4.39532e-07H3.45635C2.53967 -4.39532e-07 1.66053 0.363787 1.01234 1.01133C0.364151 1.65888 2.97562e-08 2.53714 2.97562e-08 3.45291L2.97562e-08 9.33253C-6.52339e-05 9.87685 0.107226 10.4158 0.315744 10.9187C0.524262 11.4216 0.82992 11.8785 1.21525 12.2634L7.94823 18.9896C8.59274 19.633 9.46545 19.9961 10.3765 20C11.2876 20.0038 12.1634 19.6482 12.8134 19.0103L18.9657 12.9747C19.6196 12.333 19.9916 11.4582 19.9999 10.5426C20.0082 9.627 19.6521 8.7456 19.0099 8.09224L12.2797 1.24028ZM4.20016 6.63787C4.00598 6.8321 3.89691 7.09539 3.89691 7.36989C3.89691 7.6444 4.00598 7.90768 4.20016 8.10191L6.64311 10.5438L6.52145 10.6654C6.33829 10.8617 6.23858 11.1214 6.24332 11.3898C6.24806 11.6582 6.35688 11.9142 6.54686 12.104C6.73684 12.2938 6.99314 12.4025 7.26177 12.4072C7.5304 12.412 7.79038 12.3124 7.98694 12.1294L8.11137 12.0092L8.59941 12.4968L8.47636 12.6183C8.28184 12.8126 8.17256 13.0762 8.17256 13.351C8.17256 13.6258 8.28184 13.8894 8.47636 14.0837C8.67088 14.2781 8.93471 14.3872 9.2098 14.3872C9.34601 14.3872 9.48089 14.3604 9.60673 14.3084C9.73258 14.2563 9.84692 14.18 9.94324 14.0837L10.0649 13.9622L10.5543 14.4497C10.7509 14.6327 11.0109 14.7323 11.2795 14.7276C11.5481 14.7229 11.8044 14.6141 11.9944 14.4244C12.1844 14.2346 12.2932 13.9785 12.2979 13.7102C12.3027 13.4418 12.203 13.1821 12.0198 12.9857L11.5318 12.4968L12.9973 11.0327C13.0964 10.9372 13.1754 10.823 13.2298 10.6966C13.2842 10.5703 13.3129 10.4343 13.3141 10.2968C13.3154 10.1593 13.2892 10.0228 13.2371 9.89552C13.1851 9.76819 13.1081 9.65249 13.0108 9.55519C12.9135 9.45788 12.7978 9.38091 12.6704 9.32876C12.543 9.27662 12.4064 9.25035 12.2688 9.25148C12.1311 9.25261 11.995 9.28112 11.8685 9.33535C11.7419 9.38957 11.6275 9.46843 11.5318 9.56733L10.0663 11.0314L9.57687 10.5438L10.676 9.4444C11.2702 8.82502 11.5979 7.99772 11.5888 7.13985C11.5796 6.28198 11.2345 5.46182 10.6272 4.85518C10.02 4.24854 9.19899 3.9037 8.34026 3.8946C7.48154 3.88549 6.65341 4.21283 6.03341 4.80645L4.20016 6.63787ZM9.21049 7.98037L8.10999 9.07839L6.40117 7.36989L7.50029 6.27049C7.72726 6.04374 8.0351 5.91636 8.35608 5.91636C8.67707 5.91636 8.9849 6.04374 9.21187 6.27049C9.43885 6.49723 9.56636 6.80476 9.56636 7.12543C9.56636 7.44609 9.43746 7.75362 9.21049 7.98037Z" fill="black"/>
</svg>
